HIERARCHY
ROOT hip
{
  OFFSET 0 0 0
  CHANNELS 6 Xposition Yposition Zposition Zrotation Yrotation Xrotation
  JOINT abdomen
  {
    OFFSET 0 20.6881 -0.73152
    CHANNELS 3 Zrotation Xrotation Yrotation
    JOINT chest
    {
      OFFSET 0 11.7043 -0.48768
      CHANNELS 3 Zrotation Xrotation Yrotation
      JOINT neck
      {
        OFFSET 0 22.1894 -2.19456
        CHANNELS 3 Zrotation Xrotation Yrotation
        JOINT head
        {
          OFFSET -0.24384 7.07133 1.2192
          CHANNELS 3 Zrotation Xrotation Yrotation
          JOINT leftEye
          {
            OFFSET 4.14528 8.04674 8.04672
            CHANNELS 3 Zrotation Xrotation Yrotation
            End Site
            {
              OFFSET 1 0 0
            }
          }
          JOINT rightEye
          {
            OFFSET -3.6576 8.04674 8.04672
            CHANNELS 3 Zrotation Xrotation Yrotation
            End Site
            {
              OFFSET 1 0 0
            }
          }
        }
      }
      JOINT rCollar
      {
        OFFSET -2.68224 19.2634 -4.8768
        CHANNELS 3 Zrotation Xrotation Yrotation
        JOINT rShldr
        {
          OFFSET -8.77824 -1.95073 1.46304
          CHANNELS 3 Zrotation Xrotation Yrotation
          JOINT rForeArm
          {
            OFFSET -28.1742 -1.7115 0.48768
            CHANNELS 3 Zrotation Xrotation Yrotation
            JOINT rHand
            {
              OFFSET -22.5879 0.773209 7.07136
              CHANNELS 3 Zrotation Xrotation Yrotation
              JOINT rThumb1
              {
                OFFSET -1.2192 -0.487915 3.41376
                CHANNELS 3 Zrotation Xrotation Yrotation
                JOINT rThumb2
                {
                  OFFSET -3.37035 -0.52449 3.41376
                  CHANNELS 3 Zrotation Xrotation Yrotation
                  End Site
                  {
                    OFFSET -1.78271 -1.18214 1.43049
                  }
                }
              }
              JOINT rIndex1
              {
                OFFSET -7.75947 0.938293 5.60832
                CHANNELS 3 Zrotation Xrotation Yrotation
                JOINT rIndex2
                {
                  OFFSET -2.54057 -0.884171 1.56538
                  CHANNELS 3 Zrotation Xrotation Yrotation
                  End Site
                  {
                    OFFSET -1.62519 -0.234802 1.16502
                  }
                }
              }
              JOINT rMid1
              {
                OFFSET -8.24714 1.18213 3.41376
                CHANNELS 3 Zrotation Xrotation Yrotation
                JOINT rMid2
                {
                  OFFSET -3.10165 -0.590103 1.0647
                  CHANNELS 3 Zrotation Xrotation Yrotation
                  End Site
                  {
                    OFFSET -2.48547 -0.328903 0.83742
                  }
                }
              }
              JOINT rRing1
              {
                OFFSET -8.82822 0.546677 1.51678
                CHANNELS 3 Zrotation Xrotation Yrotation
                JOINT rRing2
                {
                  OFFSET -2.60934 -0.819778 -0.0198488
                  CHANNELS 3 Zrotation Xrotation Yrotation
                  End Site
                  {
                    OFFSET -2.33842 -0.294052 0.168128
                  }
                }
              }
              JOINT rPinky1
              {
                OFFSET -8.27202 -0.0477905 -0.4584
                CHANNELS 3 Zrotation Xrotation Yrotation
                JOINT rPinky2
                {
                  OFFSET -1.82734 -0.647385 -0.700984
                  CHANNELS 3 Zrotation Xrotation Yrotation
                  End Site
                  {
                    OFFSET -1.69225 -0.51767 -0.607171
                  }
                }
              }
            }
          }
        }
      }
      JOINT lCollar
      {
        OFFSET 2.68224 19.2634 -4.8768
        CHANNELS 3 Zrotation Xrotation Yrotation
        JOINT lShldr
        {
          OFFSET 8.77824 -1.95073 1.46304
          CHANNELS 3 Zrotation Xrotation Yrotation
          JOINT lForeArm
          {
            OFFSET 28.1742 -1.7115 0.48768
            CHANNELS 3 Zrotation Xrotation Yrotation
            JOINT lHand
            {
              OFFSET 22.5879 0.773209 7.07136
              CHANNELS 3 Zrotation Xrotation Yrotation
              JOINT lThumb1
              {
                OFFSET 1.2192 -0.487915 3.41376
                CHANNELS 3 Zrotation Xrotation Yrotation
                JOINT lThumb2
                {
                  OFFSET 3.37035 -0.52449 3.41376
                  CHANNELS 3 Zrotation Xrotation Yrotation
                  End Site
                  {
                    OFFSET 1.78271 -1.18214 1.43049
                  }
                }
              }
              JOINT lIndex1
              {
                OFFSET 7.75947 0.938293 5.60832
                CHANNELS 3 Zrotation Xrotation Yrotation
                JOINT lIndex2
                {
                  OFFSET 2.54057 -0.884171 1.56538
                  CHANNELS 3 Zrotation Xrotation Yrotation
                  End Site
                  {
                    OFFSET 1.62519 -0.234802 1.16502
                  }
                }
              }
              JOINT lMid1
              {
                OFFSET 8.24714 1.18213 3.41376
                CHANNELS 3 Zrotation Xrotation Yrotation
                JOINT lMid2
                {
                  OFFSET 3.10165 -0.590103 1.0647
                  CHANNELS 3 Zrotation Xrotation Yrotation
                  End Site
                  {
                    OFFSET 2.48547 -0.328903 0.83742
                  }
                }
              }
              JOINT lRing1
              {
                OFFSET 8.82822 0.546677 1.51678
                CHANNELS 3 Zrotation Xrotation Yrotation
                JOINT lRing2
                {
                  OFFSET 2.60934 -0.819778 -0.0198488
                  CHANNELS 3 Zrotation Xrotation Yrotation
                  End Site
                  {
                    OFFSET 2.33842 -0.294052 0.168128
                  }
                }
              }
              JOINT lPinky1
              {
                OFFSET 8.27202 -0.0477905 -0.4584
                CHANNELS 3 Zrotation Xrotation Yrotation
                JOINT lPinky2
                {
                  OFFSET 1.82734 -0.647385 -0.700984
                  CHANNELS 3 Zrotation Xrotation Yrotation
                  End Site
                  {
                    OFFSET 1.69225 -0.51767 -0.607171
                  }
                }
              }
            }
          }
        }
      }
    }
  }
  JOINT rButtock
  {
    OFFSET -8.77824 4.35084 1.2192
    CHANNELS 3 Zrotation Xrotation Yrotation
    JOINT rThigh
    {
      OFFSET 0 -1.70687 -2.19456
      CHANNELS 3 Zrotation Xrotation Yrotation
      JOINT rShin
      {
        OFFSET 0 -36.8199 0.73152
        CHANNELS 3 Zrotation Xrotation Yrotation
        JOINT rFoot
        {
          OFFSET 0.73152 -45.1104 -5.12064
          CHANNELS 3 Zrotation Xrotation Yrotation
          End Site
          {
            OFFSET -1.1221 -3.69964 12.103
          }
        }
      }
    }
  }
  JOINT lButtock
  {
    OFFSET 8.77824 4.35084 1.2192
    CHANNELS 3 Zrotation Xrotation Yrotation
    JOINT lThigh
    {
      OFFSET 0 -1.70687 -2.19456
      CHANNELS 3 Zrotation Xrotation Yrotation
      JOINT lShin
      {
        OFFSET 0 -36.8199 0.73152
        CHANNELS 3 Zrotation Xrotation Yrotation
        JOINT lFoot
        {
          OFFSET -0.73152 -45.1104 -5.12064
          CHANNELS 3 Zrotation Xrotation Yrotation
          End Site
          {
            OFFSET 1.1221 -3.69964 12.103
          }
        }
      }
    }
  }
}
MOTION
Frames:	6
Frame Time:	0.00833333
60.1215 60.5425 61.7584 -183.806 -20.1318 -145.631 -7.47845 -8.31228 3.50501 1.18167 2.33531 1.0491 5.12865 7.22256 2.13604 -3.45051 -34.0543 2.07569 -0.0 0.0 0.0 -0.0 0.0 0.0 -3.33425e-13 2.25767e-13 5.04472e-13 64.5934 43.0873 14.5588 -25.3733 -21.9245 54.2796 -0.018432 -3.78365 -0.532616 1.36379e-09 1.85377e-09 -1.8432e-09 2.36139e-09 3.20244e-09 -3.1858e-09 1.36379e-09 1.85377e-09 -1.84321e-09 7.73091 5.47488 0.417314 1.36379e-09 1.85379e-09 -1.8432e-09 2.90554 0.965183 0.102902 1.3638e-09 1.85376e-09 -1.8432e-09 10.2786 0.731801 0.0259123 1.36379e-09 1.85379e-09 -1.84319e-09 2.22167 -0.733487 -0.20892 -3.33546e-13 2.25747e-13 5.04231e-13 -60.52 46.9727 -4.26934 23.8248 -18.7823 -49.0016 -0.00808433 -0.348126 0.0486549 2.17229e-09 1.87161e-09 -2.7745e-09 3.73696e-09 3.21919e-09 -4.80117e-09 2.17229e-09 1.87161e-09 -2.7745e-09 -7.73091 5.47488 -0.417314 2.1723e-09 1.87161e-09 -2.7745e-09 -2.90554 0.965183 -0.102902 2.17228e-09 1.87161e-09 -2.7745e-09 -10.2786 0.731801 -0.0259123 2.17229e-09 1.87161e-09 -2.77451e-09 -2.22167 -0.733487 0.20892 -2.03217e-16 0.0 -3.88251e-19 -20.8149 -80.3126 -26.9832 -7.5663 83.9761 9.476 -17.3349 -34.5657 -24.151 2.03217e-16 0.0 3.88251e-19 -61.7794 -78.0072 -64.5029 7.32182 82.3385 -7.30766 -5.53986 -16.0812 -15.4371
60.1182 61.5206 61.3265 -184.037 -21.3334 -146.295 -7.43832 -8.83894 4.28291 1.25303 2.4427 1.27558 5.19024 7.49235 2.78368 -3.42119 -34.62 3.40128 -0.0 0.0 0.0 -0.0 0.0 0.0 -4.97635e-13 5.7887e-13 6.04454e-13 61.9537 44.2873 16.1266 -25.6569 -22.5843 55.3872 -0.0207097 -4.10479 -0.577889 7.56387e-10 -4.19997e-09 1.39823e-09 1.29569e-09 -7.24755e-09 2.41536e-09 7.56392e-10 -4.19997e-09 1.39822e-09 7.73091 5.47488 0.417314 7.56389e-10 -4.19995e-09 1.39822e-09 2.90554 0.965183 0.102902 7.56393e-10 -4.19997e-09 1.39823e-09 10.2786 0.731801 0.0259123 7.56382e-10 -4.19994e-09 1.39824e-09 2.22167 -0.733487 -0.20892 -4.97762e-13 5.78852e-13 6.04206e-13 -59.6439 48.9192 -4.32843 24.2285 -19.5301 -50.3403 0.00169316 1.17485 -0.165138 3.69393e-09 4.91489e-09 -5.06642e-09 6.37991e-09 8.48942e-09 -8.75551e-09 3.69393e-09 4.91489e-09 -5.06642e-09 -7.73091 5.47488 -0.417314 3.69393e-09 4.91489e-09 -5.06642e-09 -2.90554 0.965183 -0.102902 3.69392e-09 4.9149e-09 -5.06642e-09 -10.2786 0.731801 -0.0259123 3.69393e-09 4.9149e-09 -5.06643e-09 -2.22167 -0.733487 0.20892 -2.03217e-16 0.0 -3.88251e-19 -20.2749 -78.5965 -26.9005 -5.93182 82.5674 7.80476 -17.0091 -33.6004 -24.1634 2.03217e-16 0.0 3.88251e-19 -55.5494 -77.0253 -58.6692 5.80057 80.6523 -5.81287 -5.33309 -15.0772 -15.6543
60.1867 62.5863 60.9456 -184.099 -22.4693 -146.636 -7.33111 -9.55389 5.09685 1.32582 2.45491 1.51067 5.16868 7.97921 3.40122 -3.32471 -35.335 4.72366 -0.0 0.0 0.0 -0.0 0.0 0.0 -4.79461e-13 6.65686e-13 4.30314e-13 59.2136 45.5102 17.4554 -25.9331 -23.262 56.4695 -0.0259125 -4.70824 -0.663084 4.97492e-10 -6.42931e-09 2.70565e-09 8.42076e-10 -1.11021e-08 4.67708e-09 4.97498e-10 -6.42931e-09 2.70565e-09 7.73091 5.47488 0.417314 4.97494e-10 -6.42929e-09 2.70565e-09 2.90554 0.965183 0.102902 4.97499e-10 -6.42931e-09 2.70565e-09 10.2786 0.731801 0.0259123 4.97489e-10 -6.42929e-09 2.70567e-09 2.22167 -0.733487 -0.20892 -4.7956e-13 6.65675e-13 4.30069e-13 -58.6643 50.8866 -4.47886 24.5566 -20.1679 -51.459 0.00920903 2.10475 -0.29585 3.406e-09 4.70979e-09 -4.51528e-09 5.88819e-09 8.14047e-09 -7.79964e-09 3.406e-09 4.70979e-09 -4.51527e-09 -7.73091 5.47488 -0.417314 3.406e-09 4.70979e-09 -4.51528e-09 -2.90554 0.965183 -0.102902 3.40599e-09 4.7098e-09 -4.51528e-09 -10.2786 0.731801 -0.0259123 3.406e-09 4.7098e-09 -4.51529e-09 -2.22167 -0.733487 0.20892 -2.03217e-16 0.0 -3.88251e-19 -19.7647 -76.7309 -26.9529 -4.65515 80.8441 6.46266 -16.3964 -32.5215 -23.8534 2.03217e-16 0.0 3.88251e-19 -50.2002 -76.028 -53.7792 4.72102 78.9278 -4.77081 -4.98825 -13.7088 -15.7938
60.2776 63.7893 60.5123 -183.99 -23.5858 -146.922 -7.16161 -10.4288 5.95976 1.41173 2.4113 1.75772 5.06472 8.62711 4.00456 -3.14507 -36.1594 6.07552 -0.0 0.0 0.0 -0.0 0.0 0.0 -3.53297e-13 6.06493e-13 8.20298e-14 56.3575 46.7418 18.6029 -26.2005 -23.9569 57.5575 -0.0356578 -5.52317 -0.778491 3.89259e-10 -6.73738e-09 3.06767e-09 6.53704e-10 -1.16443e-08 5.30685e-09 3.89263e-10 -6.73738e-09 3.06767e-09 7.73091 5.47488 0.417314 3.8926e-10 -6.73737e-09 3.06767e-09 2.90554 0.965183 0.102902 3.89266e-10 -6.73738e-09 3.06768e-09 10.2786 0.731801 0.0259123 3.89257e-10 -6.73737e-09 3.06769e-09 2.22167 -0.733487 -0.20892 -3.53346e-13 6.06492e-13 8.17968e-14 -57.5632 52.8662 -4.73484 24.8383 -20.7478 -52.4023 0.012624 2.72801 -0.383614 2.04849e-09 2.63526e-09 -2.28541e-09 3.54466e-09 4.55851e-09 -3.94397e-09 2.04849e-09 2.63526e-09 -2.2854e-09 -7.73091 5.47488 -0.417314 2.0485e-09 2.63526e-09 -2.28541e-09 -2.90554 0.965183 -0.102902 2.04849e-09 2.63526e-09 -2.28541e-09 -10.2786 0.731801 -0.0259123 2.04849e-09 2.63527e-09 -2.28542e-09 -2.22167 -0.733487 0.20892 -2.03217e-16 0.0 -3.88251e-19 -19.2429 -74.7282 -27.0844 -3.71085 78.8551 5.43181 -15.5879 -31.304 -23.3366 2.03217e-16 0.0 3.88251e-19 -45.3972 -74.9912 -49.48 3.89019 77.121 -3.98706 -4.52615 -12.0468 -15.8622
60.3848 65.1278 60.0764 -183.759 -24.9814 -147.159 -6.92044 -11.4163 6.81251 1.50517 2.40849 1.99765 4.89771 9.31412 4.56432 -2.89008 -36.9837 7.38076 -0.0 0.0 0.0 -0.0 0.0 0.0 -1.87625e-13 4.78222e-13 -2.88919e-13 53.718 47.7888 19.5038 -26.4201 -24.5613 58.5305 -0.0490517 -6.3829 -0.900712 3.14936e-10 -6.20688e-09 3.02788e-09 5.25818e-10 -1.07389e-08 5.24193e-09 3.14938e-10 -6.20688e-09 3.02787e-09 7.73091 5.47488 0.417314 3.14936e-10 -6.20688e-09 3.02788e-09 2.90554 0.965183 0.102902 3.14944e-10 -6.20688e-09 3.02789e-09 10.2786 0.731801 0.0259123 3.14935e-10 -6.20688e-09 3.0279e-09 2.22167 -0.733487 -0.20892 -1.87626e-13 4.78231e-13 -2.89136e-13 -56.4133 54.714 -5.12478 25.0712 -21.2489 -53.194 0.0130134 3.09146 -0.434872 3.70705e-10 -3.68912e-11 3.2846e-10 6.45782e-10 -5.79113e-11 5.74566e-10 3.70702e-10 -3.68991e-11 3.28475e-10 -7.73091 5.47488 -0.417314 3.70705e-10 -3.68949e-11 3.28459e-10 -2.90554 0.965183 -0.102902 3.707e-10 -3.68931e-11 3.28459e-10 -10.2786 0.731801 -0.0259123 3.70709e-10 -3.68888e-11 3.28452e-10 -2.22167 -0.733487 0.20892 -2.03217e-16 0.0 -3.88251e-19 -18.5939 -72.5681 -27.1689 -2.96996 76.5682 4.59 -14.6101 -29.8173 -22.6875 2.03217e-16 0.0 3.88251e-19 -40.7803 -73.8482 -45.4262 3.19972 75.0884 -3.34811 -3.94559 -10.1164 -15.8128
60.4321 66.5999 59.648 -183.713 -26.7064 -147.394 -6.60509 -12.47 7.59476 1.59896 2.54305 2.21147 4.69346 9.91892 5.04977 -2.58573 -37.703 8.55207 -0.0 0.0 0.0 -0.0 0.0 0.0 -5.09271e-14 3.57804e-13 -5.31053e-13 51.6486 48.4596 20.0711 -26.566 -24.9833 59.2559 -0.0625949 -7.12075 -1.00599 1.57775e-10 -5.92052e-09 3.12987e-09 2.53662e-10 -1.02509e-08 5.41961e-09 1.57776e-10 -5.92052e-09 3.12986e-09 7.73091 5.47488 0.417314 1.57773e-10 -5.92052e-09 3.12988e-09 2.90554 0.965183 0.102902 1.57783e-10 -5.92052e-09 3.12988e-09 10.2786 0.731801 0.0259123 1.57774e-10 -5.92052e-09 3.12989e-09 2.22167 -0.733487 -0.20892 -5.09038e-14 3.57822e-13 -5.31252e-13 -55.2898 56.2856 -5.67402 25.2518 -21.6472 -53.8564 0.0129073 3.24191 -0.456112 -8.78083e-10 -2.03486e-09 2.03158e-09 -1.51198e-09 -3.51022e-09 3.51905e-09 -8.78086e-10 -2.03487e-09 2.0316e-09 -7.73091 5.47488 -0.417314 -8.78083e-10 -2.03487e-09 2.03158e-09 -2.90554 0.965183 -0.102902 -8.78086e-10 -2.03487e-09 2.03158e-09 -10.2786 0.731801 -0.0259123 -8.78077e-10 -2.03486e-09 2.03158e-09 -2.22167 -0.733487 0.20892 -2.03217e-16 0.0 -3.88251e-19 -17.759 -70.2306 -27.1379 -2.3563 73.9506 3.86714 -13.4913 -27.9317 -21.9873 2.03217e-16 0.0 3.88251e-19 -36.1467 -72.5118 -41.4297 2.6062 72.6863 -2.80534 -3.25513 -7.93971 -15.6002
